<?xml version="1.0" encoding="UTF-8" standalone="no"?>
<!-- Generator: Adobe Illustrator 18.1.1, SVG Export Plug-In . SVG Version: 6.00 Build 0)  -->

<svg
   xmlns:dc="http://purl.org/dc/elements/1.1/"
   xmlns:cc="http://creativecommons.org/ns#"
   xmlns:rdf="http://www.w3.org/1999/02/22-rdf-syntax-ns#"
   xmlns:svg="http://www.w3.org/2000/svg"
   xmlns="http://www.w3.org/2000/svg"
   xmlns:sodipodi="http://sodipodi.sourceforge.net/DTD/sodipodi-0.dtd"
   xmlns:inkscape="http://www.inkscape.org/namespaces/inkscape"
   version="1.1"
   id="Major"
   x="0px"
   y="0px"
   viewBox="0 0 64 64"
   enable-background="new 0 0 64 64"
   xml:space="preserve"
   sodipodi:docname="Medium.svg"
   inkscape:version="0.92.4 (5da689c313, 2019-01-14)"
   inkscape:export-filename="/home/sasha/Downloads/Medium.png"
   inkscape:export-xdpi="96"
   inkscape:export-ydpi="96"><metadata
   id="metadata15"><rdf:RDF><cc:Work
       rdf:about=""><dc:format>image/svg+xml</dc:format><dc:type
         rdf:resource="http://purl.org/dc/dcmitype/StillImage" /><dc:title /></cc:Work></rdf:RDF></metadata><defs
   id="defs13" /><sodipodi:namedview
   pagecolor="#ffffff"
   bordercolor="#666666"
   borderopacity="1"
   objecttolerance="10"
   gridtolerance="10"
   guidetolerance="10"
   inkscape:pageopacity="0"
   inkscape:pageshadow="2"
   inkscape:window-width="3840"
   inkscape:window-height="2029"
   id="namedview11"
   showgrid="false"
   inkscape:zoom="14.75"
   inkscape:cx="41.856824"
   inkscape:cy="32.063701"
   inkscape:window-x="0"
   inkscape:window-y="0"
   inkscape:window-maximized="1"
   inkscape:current-layer="Major" />




<g
   id="g19"
   transform="matrix(1.127624,0,0,1.1229432,-4.0332789,-13.666573)"
   style="fill:#ff6600"><path
     id="path6"
     d="m 49.593,49.556 v 0 c 1.556,-1.556 1.556,-4.101 0,-5.657 L 34.824,29.13 c -1.556,-1.556 -4.101,-1.556 -5.657,0 v 0 c -1.556,1.556 -1.556,4.101 0,5.657 l 14.769,14.769 c 1.555,1.555 4.101,1.555 5.657,0 z"
     inkscape:connector-curvature="0"
     style="fill:#ff6600" /><path
     id="path8"
     d="m 14.241,49.556 v 0 c -1.556,-1.556 -1.556,-4.101 0,-5.657 L 29.01,29.13 c 1.556,-1.556 4.101,-1.556 5.657,0 v 0 c 1.556,1.556 1.556,4.101 0,5.657 l -14.77,14.769 c -1.555,1.555 -4.101,1.555 -5.656,0 z"
     inkscape:connector-curvature="0"
     style="fill:#ff6600" /></g></svg>